<svg width="32" height="31" viewBox="0 0 32 31" fill="none" xmlns="http://www.w3.org/2000/svg">
<path d="M24.9984 28.969H2.99841V6.96899H15.2184C15.7707 6.96899 16.2184 6.52128 16.2184 5.96899C16.2184 5.41671 15.7707 4.96899 15.2184 4.96899H2.99841C2.46798 4.96899 1.95927 5.17971 1.5842 5.55478C1.20913 5.92985 0.998413 6.43856 0.998413 6.96899V28.969C0.998413 29.4994 1.20913 30.0081 1.5842 30.3832C1.95927 30.7583 2.46798 30.969 2.99841 30.969H24.9984C25.5288 30.969 26.0376 30.7583 26.4126 30.3832C26.7877 30.0081 26.9984 29.4994 26.9984 28.969V16.969C26.9984 16.4167 26.5507 15.969 25.9984 15.969C25.4461 15.969 24.9984 16.4167 24.9984 16.969V28.969Z" fill="white"/>
<path d="M30.5284 4.80894L27.1584 1.43894C27.0088 1.28897 26.8311 1.16998 26.6355 1.0888C26.4399 1.00761 26.2302 0.96582 26.0184 0.96582C25.8066 0.96582 25.5969 1.00761 25.4012 1.0888C25.2056 1.16998 25.0279 1.28897 24.8784 1.43894L11.7717 14.6221C11.3773 15.0188 11.1017 15.5177 10.976 16.0627L10.0584 20.0389C10.0111 20.2721 10.0161 20.5128 10.0729 20.7438C10.1298 20.9749 10.2372 21.1904 10.3873 21.3749C10.5374 21.5595 10.7266 21.7085 10.9412 21.8112C11.1558 21.9139 11.3905 21.9678 11.6284 21.9689C11.7513 21.9825 11.8754 21.9825 11.9984 21.9689L15.9853 21.0893C16.5487 20.965 17.0643 20.6809 17.4703 20.2711L30.5284 7.08894C30.6783 6.93938 30.7973 6.7617 30.8785 6.56608C30.9597 6.37046 31.0015 6.16074 31.0015 5.94894C31.0015 5.73714 30.9597 5.52742 30.8785 5.3318C30.7973 5.13618 30.6783 4.9585 30.5284 4.80894ZM15.8084 19.0489L12.1484 19.8589L12.9984 16.2289L23.3184 5.83894L26.1384 8.65894L15.8084 19.0489ZM27.2684 7.52894L24.4484 4.70894L25.9984 3.12894L28.8384 5.96894L27.2684 7.52894Z" fill="white"/>
</svg>
