<svg width="27" height="23" viewBox="0 0 27 23" fill="none" xmlns="http://www.w3.org/2000/svg">
<path d="M20.9984 2.96561L20.9984 20.9656C20.9979 21.4959 20.787 22.0043 20.412 22.3792C20.0371 22.7542 19.5287 22.9651 18.9984 22.9656L14.9984 22.9656C14.4681 22.9651 13.9597 22.7542 13.5848 22.3792C13.2098 22.0043 12.9989 21.4959 12.9984 20.9656L12.9984 2.96561C12.9989 2.43534 13.2098 1.92694 13.5848 1.55198C13.9597 1.17702 14.4681 0.966138 14.9984 0.965608L18.9984 0.965608C19.5287 0.966138 20.0371 1.17702 20.412 1.55198C20.787 1.92694 20.9979 2.43534 20.9984 2.96561ZM14.9984 20.9656L18.9984 20.9656L18.9984 2.96561L14.9984 2.96561L14.9984 20.9656ZM14.9984 2.96561L14.9984 20.9656C14.9979 21.4959 14.787 22.0043 14.412 22.3792C14.0371 22.7542 13.5287 22.9651 12.9984 22.9656L8.99841 22.9656C8.46814 22.9651 7.95974 22.7542 7.58478 22.3792C7.20983 22.0043 6.99894 21.4959 6.99841 20.9656L6.99841 2.96559C6.99894 2.43532 7.20983 1.92692 7.58478 1.55196C7.95974 1.177 8.46814 0.966119 8.99841 0.965589L12.9984 0.965589C13.5287 0.966119 14.0371 1.177 14.412 1.55196C14.787 1.92692 14.9979 2.43534 14.9984 2.96561ZM8.99841 20.9656L12.9984 20.9656L12.9984 2.96561L8.99841 2.96559L8.99841 20.9656ZM8.99841 2.96559L8.99841 20.9656C8.99788 21.4959 8.787 22.0043 8.41204 22.3792C8.03708 22.7542 7.52868 22.9651 6.99841 22.9656L2.99841 22.9656C2.46814 22.9651 1.95974 22.7542 1.58478 22.3792C1.20983 22.0043 0.998942 21.4959 0.998413 20.9656L0.998412 2.96559C0.998942 2.43532 1.20983 1.92692 1.58478 1.55196C1.95974 1.177 2.46814 0.96612 2.99841 0.965589L6.99841 0.965589C7.52868 0.966119 8.03708 1.177 8.41204 1.55196C8.787 1.92692 8.99788 2.43532 8.99841 2.96559ZM2.99841 20.9656L6.99841 20.9656L6.99841 2.96559L2.99841 2.96559L2.99841 20.9656Z" fill="#CDCDCD"/>
<path d="M26.9984 2.96583L26.9984 20.9658C26.9979 21.4961 26.787 22.0045 26.412 22.3794C26.0371 22.7544 25.5287 22.9653 24.9984 22.9658L20.9984 22.9658C20.4681 22.9653 19.9597 22.7544 19.5848 22.3794C19.2098 22.0045 18.9989 21.4959 18.9984 20.9656L18.9984 2.96561C18.9989 2.43534 19.2098 1.92716 19.5848 1.5522C19.9597 1.17724 20.4681 0.966361 20.9984 0.965831L24.9984 0.965831C25.5287 0.966361 26.0371 1.17724 26.412 1.5522C26.787 1.92716 26.9979 2.43556 26.9984 2.96583ZM20.9984 20.9656L24.9984 20.9658L24.9984 2.96583L20.9984 2.96561L20.9984 20.9656Z" fill="#CDCDCD"/>
</svg>
