<svg width="20" height="23" viewBox="0 0 20 23" fill="none" xmlns="http://www.w3.org/2000/svg">
<path d="M4.58175 20.769H15.4151V20.494C14.6567 19.8523 13.8172 19.3713 12.8963 19.0508C11.9755 18.7296 11.0095 18.569 9.99841 18.569C8.9873 18.569 8.02133 18.7296 7.1005 19.0508C6.17966 19.3713 5.34008 19.8523 4.58175 20.494V20.769ZM2.41508 19.504C3.39008 18.5323 4.52325 17.7667 5.81458 17.2072C7.10519 16.6484 8.4998 16.369 9.99841 16.369C11.497 16.369 12.892 16.6484 14.1833 17.2072C15.4739 17.7667 16.6067 18.5323 17.5817 19.504V5.36899H2.41508V19.504ZM9.99841 14.169C8.95119 14.169 8.05744 13.7932 7.31716 13.0415C6.57689 12.2898 6.20675 11.3823 6.20675 10.319C6.20675 9.25566 6.57689 8.34816 7.31716 7.59649C8.05744 6.84483 8.95119 6.46899 9.99841 6.46899C11.0456 6.46899 11.9394 6.84483 12.6797 7.59649C13.4199 8.34816 13.7901 9.25566 13.7901 10.319C13.7901 11.3823 13.4199 12.2898 12.6797 13.0415C11.9394 13.7932 11.0456 14.169 9.99841 14.169ZM9.99841 11.969C10.4498 11.969 10.8333 11.8084 11.1489 11.4872C11.4652 11.1667 11.6234 10.7773 11.6234 10.319C11.6234 9.86066 11.4652 9.47126 11.1489 9.15079C10.8333 8.82959 10.4498 8.66899 9.99841 8.66899C9.54702 8.66899 9.16352 8.82959 8.84791 9.15079C8.53158 9.47126 8.37341 9.86066 8.37341 10.319C8.37341 10.7773 8.53158 11.1667 8.84791 11.4872C9.16352 11.8084 9.54702 11.969 9.99841 11.969ZM1.24841 22.969C0.696128 22.969 0.248413 22.5213 0.248413 21.969V4.169C0.248413 3.61671 0.696128 3.16899 1.24841 3.16899H3.49841V1.96899C3.49841 1.41671 3.94613 0.968994 4.49841 0.968994H4.66508C5.21736 0.968994 5.66508 1.41671 5.66508 1.96899V3.16899H14.3317V1.96899C14.3317 1.41671 14.7795 0.968994 15.3317 0.968994H15.4984C16.0507 0.968994 16.4984 1.41671 16.4984 1.96899V3.16899H18.7484C19.3007 3.16899 19.7484 3.61671 19.7484 4.16899V21.969C19.7484 22.5213 19.3007 22.969 18.7484 22.969H1.24841Z" fill="#CDCDCD"/>
</svg>
