<svg width="32" height="40" viewBox="0 0 32 40" fill="none" xmlns="http://www.w3.org/2000/svg">
<path d="M22.927 0.00195312H15.8389V8.15673H22.927V0.00195312Z" fill="#2A3647"/>
<path d="M15.8392 14.7891H22.9273V26.2901C22.9597 29.0576 22.1721 31.7722 20.6646 34.0889C19.1761 36.3398 16.3027 39.0179 10.9866 39.0179C5.19613 39.0179 1.8211 36.2795 0 34.7789L4.47096 29.2639C6.24844 30.7152 7.96049 31.9092 11.0138 31.9092C13.3256 31.9092 14.2471 30.9672 14.7869 30.1457C15.5207 29.0046 15.9003 27.6702 15.8774 26.312L15.8392 14.7891Z" fill="#2A3647"/>
<path d="M12.2239 9.64062H5.13574V16.7603H12.2239V9.64062Z" fill="#29ABE2"/>
<path d="M26.6409 35.6773C26.6409 37.1943 25.8721 38.0103 24.798 38.0103C23.7239 38.0103 23.0205 37.0409 23.0205 35.7539C23.0205 34.4669 23.7457 33.4482 24.858 33.4482C25.9703 33.4482 26.6409 34.4505 26.6409 35.6773ZM23.8438 35.7375C23.8438 36.6521 24.2091 37.3257 24.8362 37.3257C25.4632 37.3257 25.8176 36.6138 25.8176 35.6827C25.8176 34.8667 25.4904 34.1 24.8362 34.1C24.1819 34.1 23.8438 34.8393 23.8438 35.7375Z" fill="#2A3647"/>
<path d="M28.0478 33.5137V37.9388H27.2627V33.5137H28.0478Z" fill="#2A3647"/>
<path d="M28.8975 37.9388V33.5137H29.7698L30.7077 35.3374C30.9491 35.8143 31.1639 36.3043 31.351 36.8052C31.302 36.2575 31.2802 35.6277 31.2802 34.9267V33.5137H31.9999V37.9388H31.1875L30.2387 36.0768C29.9876 35.5876 29.7637 35.0848 29.5681 34.5707C29.5681 35.1183 29.6063 35.7372 29.6063 36.4985V37.9334L28.8975 37.9388Z" fill="#2A3647"/>
</svg>
