<svg width="1440" height="1024" viewBox="0 0 1440 1024" fill="none" xmlns="http://www.w3.org/2000/svg">
<rect width="1440" height="1024" fill="#F6F7F8"/>
<path d="M779.314 345H718.623V414.825H779.314V345Z" fill="#2A3647"/>
<path d="M718.623 471.614H779.315V570.091C779.592 593.787 772.848 617.031 759.94 636.868C747.195 656.141 722.591 679.072 677.072 679.072C627.492 679.072 598.593 655.626 583 642.777L621.283 595.554C636.502 607.981 651.162 618.204 677.306 618.204C697.101 618.204 704.99 610.138 709.612 603.104C715.896 593.334 719.146 581.908 718.95 570.279L718.623 471.614Z" fill="#2A3647"/>
<path d="M687.67 427.533H626.978V488.495H687.67V427.533Z" fill="#29ABE2"/>
<path d="M811.108 650.467C811.108 663.456 804.525 670.444 795.328 670.444C786.131 670.444 780.108 662.143 780.108 651.123C780.108 640.103 786.318 631.381 795.842 631.381C805.366 631.381 811.108 639.962 811.108 650.467ZM787.158 650.983C787.158 658.814 790.286 664.582 795.655 664.582C801.024 664.582 804.058 658.486 804.058 650.514C804.058 643.526 801.257 636.961 795.655 636.961C790.053 636.961 787.158 643.292 787.158 650.983Z" fill="#2A3647"/>
<path d="M823.153 631.944V669.834H816.43V631.944H823.153Z" fill="#2A3647"/>
<path d="M830.436 669.834V631.944H837.905L845.935 647.56C848.002 651.643 849.842 655.838 851.444 660.127C851.024 655.438 850.837 650.045 850.837 644.042V631.944H857V669.834H850.044L841.92 653.89C839.77 649.702 837.853 645.397 836.178 640.994C836.178 645.684 836.505 650.983 836.505 657.501V669.787L830.436 669.834Z" fill="#2A3647"/>
</svg>
