<svg width="20" height="10" viewBox="0 0 20 10" fill="none" xmlns="http://www.w3.org/2000/svg">
<path d="M18.9043 9.75471C18.6696 9.75511 18.4411 9.68026 18.2522 9.54117L10.0001 3.458L1.74809 9.54117C1.63224 9.62673 1.50066 9.68866 1.36086 9.72341C1.22106 9.75816 1.07577 9.76506 0.933305 9.7437C0.790837 9.72235 0.653973 9.67316 0.530528 9.59895C0.407083 9.52474 0.299474 9.42697 0.213845 9.3112C0.128216 9.19544 0.0662437 9.06395 0.0314671 8.92425C-0.00330956 8.78455 -0.0102098 8.63938 0.0111604 8.49702C0.0543195 8.2095 0.21001 7.9509 0.443982 7.77809L9.34809 1.20761C9.53679 1.06802 9.76536 0.992676 10.0001 0.992676C10.2349 0.992676 10.4635 1.06802 10.6522 1.20761L19.5563 7.77809C19.7422 7.91501 19.8801 8.10712 19.9503 8.327C20.0204 8.54688 20.0193 8.78328 19.9469 9.00246C19.8746 9.22165 19.7349 9.4124 19.5476 9.54749C19.3604 9.68258 19.1352 9.75511 18.9043 9.75471Z" fill="#FF3D00"/>
</svg>
