<svg width="33" height="31" viewBox="0 0 33 31" fill="none" xmlns="http://www.w3.org/2000/svg">
<path d="M12.7476 16.8502C11.1453 16.8502 9.5789 16.3751 8.2466 15.4848C6.9143 14.5946 5.87589 13.3293 5.2627 11.8489C4.64951 10.3686 4.48907 8.73961 4.80167 7.16805C5.11427 5.59649 5.88588 4.15292 7.01891 3.01989C8.15194 1.88685 9.59551 1.11525 11.1671 0.802647C12.7386 0.490044 14.3676 0.650483 15.848 1.26368C17.3284 1.87687 18.5936 2.91527 19.4839 4.24758C20.3741 5.57988 20.8492 7.14625 20.8492 8.74859C20.8445 10.8958 19.9894 12.9537 18.4711 14.4721C16.9528 15.9904 14.8948 16.8455 12.7476 16.8502ZM12.7476 2.44734C11.5013 2.44734 10.2831 2.8169 9.24683 3.50929C8.21059 4.20168 7.40294 5.1858 6.92601 6.33721C6.44909 7.48861 6.3243 8.75558 6.56744 9.97791C6.81057 11.2002 7.41071 12.323 8.29196 13.2043C9.1732 14.0855 10.296 14.6856 11.5183 14.9288C12.7406 15.1719 14.0076 15.0471 15.159 14.5702C16.3104 14.0933 17.2945 13.2856 17.9869 12.2494C18.6793 11.2131 19.0489 9.99487 19.0489 8.74859C19.0489 7.0774 18.385 5.47465 17.2033 4.29293C16.0216 3.11122 14.4188 2.44734 12.7476 2.44734Z" fill="white"/>
<path d="M19.0478 30.353H0L0.162032 29.3088C0.558825 26.1625 2.07379 23.2639 4.43041 21.1419C6.78702 19.02 9.82811 17.8163 12.9986 17.7505C14.6383 17.7361 16.265 18.0419 17.7875 18.6506C17.9008 18.6936 18.0043 18.7589 18.0917 18.8428C18.1791 18.9266 18.2488 19.0273 18.2964 19.1387C18.344 19.2501 18.3686 19.37 18.3688 19.4911C18.3689 19.6123 18.3446 19.7322 18.2974 19.8437C18.2501 19.9553 18.1808 20.0561 18.0936 20.1402C18.0064 20.2244 17.9031 20.29 17.79 20.3333C17.6768 20.3765 17.5561 20.3965 17.435 20.392C17.3139 20.3874 17.195 20.3585 17.0854 20.307C15.7907 19.7654 14.402 19.484 12.9986 19.4788C10.4471 19.5424 7.99185 20.4661 6.03111 22.1C4.07036 23.734 2.71909 25.9824 2.19644 28.4806H19.1018C19.3406 28.4806 19.5695 28.5754 19.7383 28.7442C19.9072 28.9131 20.002 29.142 20.002 29.3808C20.002 29.6195 19.9072 29.8485 19.7383 30.0173C19.5695 30.1861 19.3406 30.281 19.1018 30.281L19.0478 30.353Z" fill="white"/>
<path d="M25.7987 15.9496C24.4084 15.9505 23.0481 16.354 21.882 17.1111C20.7159 17.8683 19.7939 18.9468 19.2274 20.2164C18.8072 21.1374 18.5922 22.1387 18.5973 23.151C18.5973 24.5753 19.0196 25.9676 19.8109 27.1519C20.6022 28.3362 21.7269 29.2592 23.0428 29.8043C24.3587 30.3493 25.8067 30.4919 27.2036 30.2141C28.6006 29.9362 29.8837 29.2503 30.8909 28.2432C31.898 27.236 32.5839 25.9529 32.8618 24.5559C33.1396 23.159 32.997 21.711 32.452 20.3951C31.9069 19.0792 30.9839 17.9545 29.7996 17.1632C28.6153 16.3719 27.223 15.9496 25.7987 15.9496ZM29.3994 24.1232H26.7709V26.7517C26.7709 27.0096 26.6685 27.2568 26.4861 27.4392C26.3038 27.6215 26.0565 27.7239 25.7987 27.7239C25.5409 27.7239 25.2936 27.6215 25.1112 27.4392C24.9289 27.2568 24.8265 27.0096 24.8265 26.7517V24.0512H22.198C22.0703 24.0512 21.9439 24.026 21.8259 23.9772C21.708 23.9283 21.6008 23.8567 21.5105 23.7664C21.4203 23.6761 21.3486 23.569 21.2998 23.451C21.2509 23.3331 21.2258 23.2066 21.2258 23.079C21.2249 22.9054 21.2714 22.7349 21.3602 22.5858C21.449 22.4367 21.5768 22.3147 21.7299 22.2328C21.8689 22.1429 22.0326 22.0988 22.198 22.1068H24.8265V19.5503C24.8265 19.2924 24.9289 19.0451 25.1112 18.8628C25.2936 18.6805 25.5409 18.5781 25.7987 18.5781C26.0565 18.5781 26.3038 18.6805 26.4861 18.8628C26.6685 19.0451 26.7709 19.2924 26.7709 19.5503V22.2508H29.3994C29.6573 22.2508 29.9045 22.3532 30.0869 22.5356C30.2692 22.7179 30.3716 22.9652 30.3716 23.223C30.3716 23.4808 30.2692 23.7281 30.0869 23.9105C29.9045 24.0928 29.6573 24.1952 29.3994 24.1952V24.1232Z" fill="white"/>
</svg>
