<svg width="20" height="21" viewBox="0 0 20 21" fill="none" xmlns="http://www.w3.org/2000/svg">
<path d="M6.8965 9.07217C7.91303 10.858 9.39198 12.337 11.1778 13.3535L12.1355 12.0123C12.2895 11.7967 12.5172 11.645 12.7755 11.5859C13.0339 11.5268 13.3049 11.5644 13.5373 11.6917C15.0695 12.529 16.7616 13.0326 18.5023 13.1693C18.7739 13.1909 19.0275 13.314 19.2124 13.5142C19.3974 13.7144 19.5 13.9769 19.5 14.2494V19.0833C19.5001 19.3515 19.4006 19.6102 19.2209 19.8093C19.0412 20.0084 18.794 20.1338 18.5272 20.1612C17.953 20.2208 17.3745 20.25 16.7917 20.25C7.51833 20.25 0 12.7317 0 3.45833C0 2.8755 0.02925 2.297 0.0888334 1.72283C0.116193 1.45601 0.241566 1.20881 0.440689 1.0291C0.639812 0.849393 0.898523 0.749942 1.16675 0.75H6.00058C6.27311 0.749966 6.53564 0.852647 6.73582 1.03757C6.93601 1.2225 7.05914 1.47608 7.08067 1.74775C7.21741 3.48844 7.721 5.18049 8.55833 6.71267C8.68559 6.94511 8.72323 7.21614 8.66414 7.47446C8.60505 7.73279 8.45332 7.9605 8.23767 8.1145L6.8965 9.07217ZM4.97683 10.0808C4.42815 9.10413 4.80227 7.9048 5.71385 7.25374L6.22267 6.89033C5.63851 5.62944 5.2383 4.29124 5.03425 2.91667H2.1775C2.171 3.0965 2.16775 3.27742 2.16775 3.45833C2.16667 11.5357 8.71433 18.0833 16.7917 18.0833C16.9726 18.0833 17.1535 18.0801 17.3333 18.0725V15.2158C15.9588 15.0117 14.6206 14.6115 13.3597 14.0273L12.9963 14.5362C12.3452 15.4477 11.1459 15.8219 10.1693 15.2732L10.1064 15.2374C7.98154 14.0281 6.22189 12.2685 5.01258 10.1436L4.97683 10.0808Z" fill="#A8A8A8"/>
</svg>
