<svg width="22" height="23" viewBox="0 0 22 23" fill="none" xmlns="http://www.w3.org/2000/svg">
<path d="M20 0.135742H2C0.895431 0.135742 0 1.03222 0 2.13679C0 2.16513 0 2.18502 0 2.19492V20.1949C0 21.2668 0.869976 22.1357 1.94187 22.1357C1.97009 22.1357 1.98998 22.1357 1.99999 22.1357H20C20.01 22.1357 20.0299 22.1357 20.0581 22.1357C21.13 22.1357 22 21.2668 22 20.1949V2.19489C22 2.185 22 2.16511 22 2.13679C22 1.03222 21.1046 0.135742 20 0.135742ZM13 20.1949H2V12.1949H13V20.1949ZM13 10.1949H2V2.19492L13 2.19489V10.1949ZM20 20.1949H15V2.19492H20V20.1949Z" fill="#CDCDCD"/>
</svg>
